<?xml version="1.0" encoding="UTF-8" standalone="no"?>
<svg width="182px" height="61px" viewBox="0 0 182 61" version="1.1" xmlns="http://www.w3.org/2000/svg" xmlns:xlink="http://www.w3.org/1999/xlink">
    <!-- Generator: Sketch 3.6.1 (26313) - http://www.bohemiancoding.com/sketch -->
    <title>CTA</title>
    <desc>Created with Sketch.</desc>
    <defs></defs>
    <g id="post" stroke="none" stroke-width="1" fill="none" fill-rule="evenodd">
        <g id="Group-5">
            <rect id="Rectangle-18" fill="#093DFF" x="0" y="0" width="182" height="61"></rect>
            <path d="M25.95,38.24 C28.31,38.24 30.27,37.26 31.57,36.1 L31.57,30.52 L25.79,30.52 L25.79,31.94 L30.05,31.94 L30.05,35.42 C29.09,36.2 27.61,36.82 26.01,36.82 C22.61,36.82 20.47,34.34 20.47,31 L20.47,30.96 C20.47,27.84 22.69,25.22 25.79,25.22 C27.77,25.22 28.97,25.88 30.05,26.82 L31.07,25.62 C29.67,24.44 28.21,23.76 25.85,23.76 C21.65,23.76 18.83,27.16 18.83,31 L18.83,31.04 C18.83,35.04 21.55,38.24 25.95,38.24 L25.95,38.24 Z M35.13,38 L45.35,38 L45.35,36.56 L36.71,36.56 L36.71,31.66 L44.35,31.66 L44.35,30.22 L36.71,30.22 L36.71,25.44 L45.25,25.44 L45.25,24 L35.13,24 L35.13,38 Z M52.23,38 L53.83,38 L53.83,25.46 L58.53,25.46 L58.53,24 L47.53,24 L47.53,25.46 L52.23,25.46 L52.23,38 Z M72.29,38.2 C75.07,38.2 77.07,36.64 77.07,34.24 L77.07,34.2 C77.07,32.06 75.63,30.92 72.51,30.24 C69.43,29.58 68.71,28.84 68.71,27.52 L68.71,27.48 C68.71,26.22 69.87,25.22 71.69,25.22 C73.13,25.22 74.43,25.68 75.73,26.74 L76.65,25.52 C75.23,24.38 73.77,23.8 71.73,23.8 C69.07,23.8 67.13,25.42 67.13,27.62 L67.13,27.66 C67.13,29.96 68.61,31 71.83,31.7 C74.77,32.32 75.47,33.06 75.47,34.36 L75.47,34.4 C75.47,35.78 74.23,36.78 72.35,36.78 C70.41,36.78 69.01,36.12 67.55,34.8 L66.57,35.96 C68.25,37.46 70.07,38.2 72.29,38.2 L72.29,38.2 Z M83.99,38 L85.59,38 L85.59,25.46 L90.29,25.46 L90.29,24 L79.29,24 L79.29,25.46 L83.99,25.46 L83.99,38 Z M92.05,38 L93.67,38 L95.33,34.3 L102.95,34.3 L104.59,38 L106.29,38 L99.91,23.9 L98.43,23.9 L92.05,38 Z M95.95,32.88 L99.15,25.74 L102.33,32.88 L95.95,32.88 Z M109.05,38 L110.63,38 L110.63,32.56 L114.59,32.56 L114.63,32.56 L118.69,38 L120.63,38 L116.33,32.28 C118.53,31.88 120.13,30.52 120.13,28.2 L120.13,28.16 C120.13,27.06 119.73,26.08 119.05,25.4 C118.17,24.52 116.79,24 115.07,24 L109.05,24 L109.05,38 Z M110.63,31.14 L110.63,25.46 L114.95,25.46 C117.21,25.46 118.53,26.5 118.53,28.22 L118.53,28.26 C118.53,30.06 117.03,31.14 114.93,31.14 L110.63,31.14 Z M127.21,38 L128.81,38 L128.81,25.46 L133.51,25.46 L133.51,24 L122.51,24 L122.51,25.46 L127.21,25.46 L127.21,38 Z M136.47,38 L146.69,38 L146.69,36.56 L138.05,36.56 L138.05,31.66 L145.69,31.66 L145.69,30.22 L138.05,30.22 L138.05,25.44 L146.59,25.44 L146.59,24 L136.47,24 L136.47,38 Z M149.87,38 L154.73,38 C159.13,38 162.17,34.94 162.17,31 L162.17,30.96 C162.17,27.02 159.13,24 154.73,24 L149.87,24 L149.87,38 Z M151.45,36.54 L151.45,25.46 L154.73,25.46 C158.27,25.46 160.53,27.9 160.53,31 L160.53,31.04 C160.53,34.14 158.27,36.54 154.73,36.54 L151.45,36.54 Z" id="GET-STARTED" fill="#EFEDD8"></path>
        </g>
    </g>
</svg>